<svg width="74" height="51" viewBox="0 0 74 51" fill="none" xmlns="http://www.w3.org/2000/svg">
<path d="M38.8244 47.5191C37.1433 49.0443 34.579 49.0443 32.8979 47.5191L16.5029 32.6445C13.8479 30.2356 15.0238 25.8336 18.5264 25.0696L34.9214 21.4937C35.5406 21.3587 36.1817 21.3587 36.8009 21.4937L53.1959 25.0696C56.6985 25.8336 57.8744 30.2356 55.2194 32.6445L38.8244 47.5191Z" fill="black"/>
<path d="M10.683 24.7411L5.40233 17.532C5.29205 17.3814 5.24943 17.2139 5.27449 17.0295C5.29954 16.8451 5.38734 16.6977 5.53789 16.5874L9.95601 13.3511C12.2915 11.6404 14.2482 11.862 15.826 14.0161C17.401 16.1663 17.0208 18.0967 14.6853 19.8075L11.9117 21.8392L12.866 23.142C12.9763 23.2926 13.017 23.4615 12.9881 23.6488C12.9602 23.8293 12.871 23.9748 12.7204 24.085L11.6318 24.8825C11.4813 24.9927 11.3138 25.0353 11.1293 25.0103C10.9421 24.9814 10.7933 24.8917 10.683 24.7411ZM10.7113 20.2005L12.8248 18.6523C13.4734 18.1773 13.8864 17.7087 14.0639 17.2465C14.2386 16.7804 14.0983 16.2366 13.643 15.6151C13.1849 14.9898 12.7088 14.692 12.2146 14.7218C11.7176 14.7478 11.1448 14.9983 10.4962 15.4734L8.38273 17.0215L10.7113 20.2005Z" fill="#265179"/>
<path d="M59.7807 22.4618L66.5044 16.5536C66.6446 16.4305 66.8093 16.375 66.9984 16.3872C67.1875 16.3994 67.3436 16.4756 67.4668 16.6158L68.348 17.6187C68.4775 17.766 68.5346 17.9325 68.5192 18.118C68.507 18.3071 68.4308 18.4632 68.2906 18.5864L61.5777 24.485C61.4375 24.6082 61.2713 24.6619 61.079 24.6461C60.8936 24.6307 60.7392 24.553 60.616 24.4128L59.7348 23.4099C59.6116 23.2697 59.5525 23.1082 59.5575 22.9254C59.5662 22.7395 59.6406 22.5849 59.7807 22.4618Z" fill="#265179"/>
<path d="M34.6545 14.2247C33.7632 15.1693 32.3743 15.7308 30.4878 15.9091C28.6061 16.0869 27.1366 15.7956 26.0794 15.0352C25.0217 14.27 24.4053 12.9608 24.2302 11.1076C24.055 9.25447 24.4155 7.85536 25.3115 6.91032C26.2075 5.96527 27.5964 5.40382 29.4781 5.22597C31.3646 5.04766 32.8341 5.33896 33.8865 6.09985C34.9437 6.86029 35.5599 8.16709 35.7351 10.0203C35.9102 11.8734 35.55 13.2749 34.6545 14.2247ZM32.0782 7.79201C31.543 7.26582 30.7371 7.0536 29.6605 7.15536C28.5886 7.25667 27.8367 7.61612 27.4048 8.23372C26.9777 8.85087 26.8177 9.72635 26.9249 10.8602C27.0316 11.9892 27.3525 12.8168 27.8877 13.343C28.4272 13.864 29.2329 14.0738 30.3048 13.9725C31.3814 13.8708 32.1335 13.5137 32.5611 12.9013C32.9882 12.2842 33.1485 11.4111 33.0417 10.282C32.9346 9.14821 32.6134 8.31821 32.0782 7.79201Z" fill="#265179"/>
<path d="M45.3693 5.62462C45.359 5.56126 45.3638 5.4976 45.3838 5.43364C45.4051 5.36512 45.4719 5.29571 45.584 5.22542C45.7022 5.15198 45.8389 5.13948 45.9942 5.18791L47.4949 5.65584C47.8512 5.76695 48.0553 6.0687 48.1073 6.56108L48.9173 13.2947L53.411 8.21488C53.7322 7.84387 54.0717 7.71163 54.4294 7.81817L55.9301 8.28611C56.09 8.33596 56.1954 8.42396 56.2463 8.5501C56.2986 8.67168 56.3141 8.76673 56.2927 8.83525C56.2727 8.8992 56.2428 8.95503 56.2029 9.00273L49.5893 16.3237C49.2293 16.7227 48.8301 16.8539 48.3915 16.7171L47.4048 16.4094C46.9662 16.2727 46.7123 15.9378 46.6428 15.4049L45.3693 5.62462Z" fill="#265179"/>
</svg>
